# xmcd
#
# Track frame offsets: 
#        150
#        12671
#        32031
#        48935
#        63526
#        74257
#        94707
#        113246
#
# Disc length: 1667 seconds
#
# Revision: 1
# Processed by: cddbd v1.5.2PL0 Copyright (c) Steve Scherf et al.
# Submitted via: ExactAudioCopy v1.0b3
#
DISCID=6a068108
DTITLE=Z.Z. Hill - Faithful and True
DYEAR=1991
DGENRE=Blues
TTITLE0=Touch 'Em With Love
TTITLE1=Early In The Morning
TTITLE2=Hold Back (One Man At A Time)
TTITLE3=Put A Little Love In Your Heart
TTITLE4=I Think I'll Do It
TTITLE5=Faithful and True
TTITLE6=Just As I Am
TTITLE7=Reprise # 69
EXTD=submitted by Ralph Matthews, Roseville, CA
EXTT0=
EXTT1=
EXTT2=
EXTT3=
EXTT4=
EXTT5=
EXTT6=
EXTT7=
PLAYORDER=
